<svg width="2358" height="1224" viewBox="0 0 2358 1224" fill="none"
    xmlns="http://www.w3.org/2000/svg">
    <g clip-path="url(#clip0_616_224)">
        <rect width="2584" height="2167" fill="#1B6086"/>
        <path fill-rule="evenodd" clip-rule="evenodd" d="M2135.39 427.649C1985.7 378.707 1801.72 349.859 1602.84 349.859C1100.53 349.859 693.338 533.87 693.338 760.859C693.338 860.997 772.585 952.769 904.286 1024.07C675.916 949.404 527.338 827.973 527.338 690.859C527.338 463.87 934.535 279.859 1436.84 279.859C1717.55 279.859 1968.56 337.328 2135.39 427.649Z" fill="white"/>
        <rect x="1391.6" y="530.473" width="467.519" height="95.7333" transform="rotate(90 1391.6 530.473)" fill="white"/>
        <path fill-rule="evenodd" clip-rule="evenodd" d="M471.75 681.821L505.069 744.553C555.918 829.539 656.301 911.458 790.61 980.068C671.613 889.138 607.616 786.148 623.203 687.231C623.828 683.267 624.576 679.335 625.447 675.437L571.945 667.006L355.154 250C320.62 252.965 286.549 256.658 253 261.049L471.75 681.821Z" fill="white"/>
    </g>
    <defs>
        <clipPath id="clip0_616_224">
            <rect width="2358" height="1224" fill="white"/>
        </clipPath>
    </defs>
</svg>
