<?xml version="1.0" encoding="iso-8859-1"?>
<!-- Generator: Adobe Illustrator 27.2.0, SVG Export Plug-In . SVG Version: 6.00 Build 0)  -->
<svg version="1.1" id="Ebene_1" xmlns="http://www.w3.org/2000/svg" xmlns:xlink="http://www.w3.org/1999/xlink" x="0px" y="0px"
	 viewBox="0 0 500 500" style="enable-background:new 0 0 500 500;" xml:space="preserve">
<g>
	<path style="fill:#151975;" d="M482.603,34.347l12.24-3.121l-14.025-5.669L475.63,0l-8.83,19.895
		c-10.728-5.209-23.347-3.826-31.411,4.391c-0.796,0.811-1.515,1.647-2.136,2.535c-0.137,0.14-10.194,14.538-10.305,14.655
		c-0.662,0.671-1.823,0.859-2.581,0.423c-54.017-31.16-130.346-17.048-190.006,34.317c-0.636,0.562-1.857,1.945-0.231,3.772
		c0.746,0.838,1.9,1.053,3.089,0.442c39.562-20.339,90.437-16.392,132.465,10.721c0,0,0.371,0.233,0.792,0.549
		c0.777,0.581,1.198,2.04,0.562,3.007l-12.7,19.228h36.875v33.573c0,0,16.338-11.279,17.583-12.092
		c0.764-0.466,2.029-0.192,2.643,0.637c0.081,0.114,0.515,0.79,0.661,1.014c27.228,41.7,32.053,91.229,12.457,131.132
		c-0.706,1.438-0.147,2.402,0.473,3.054c0.99,1.041,2.545,1.257,3.808-0.293c48.517-59.554,62.331-136.934,31.581-189.121
		c-0.75-1.273-0.552-2.359,0.129-3.053l14.71-10.736c0.853-0.663,1.702-1.376,2.494-2.186c4.884-5.266,8.959-12.859,6.099-25.367
		L482.603,34.347z"/>
	<g>
		<path style="fill:#151975;" d="M358.595,169.864c0,0-42.904,72.263-43.356,72.893c-0.691,0.964-2.348,0.774-3.402-0.139
			c-0.98-0.849-0.755-1.892-0.57-2.806c0.474-2.8,12.395-58.051,12.395-58.051s-91.112,26.298-93.003,26.823
			c-1.332,0.36-2.253,0.551-3.17-0.349c-1.02-1.001-1.264-2.734-0.207-3.481c1.436-1.016,106.55-59.641,106.55-59.641l20.507-31.181
			H5.157V500h386.057V147.505L358.595,169.864z M113.553,464.284c-8.947,7.687-21.548,11.467-37.803,11.593
			c-16.633,0-29.739-3.78-39.315-11.341c-9.577-7.561-14.365-18.02-14.365-31.377h25.454c0.756,5.797,2.394,10.207,4.788,13.105
			c4.285,5.292,11.719,7.939,22.304,7.939c6.301,0,11.467-0.756,15.373-2.142c7.435-2.646,11.215-7.561,11.215-14.869
			c0-4.158-1.89-7.435-5.544-9.829c-3.654-2.268-9.451-4.284-17.39-5.923l-13.483-3.15c-13.231-3.024-22.43-6.301-27.597-9.829
			c-8.568-5.923-12.853-15.121-12.853-27.596c0-11.467,4.158-20.918,12.475-28.478c8.317-7.561,20.54-11.341,36.669-11.341
			c13.483,0,24.95,3.528,34.401,10.711c9.577,7.057,14.491,17.389,14.995,30.999H97.172c-0.504-7.687-3.78-13.105-10.081-16.381
			c-4.158-2.142-9.325-3.15-15.499-3.15c-6.931,0-12.349,1.386-16.507,4.158s-6.175,6.679-6.175,11.593
			c0,4.536,2.016,7.939,6.049,10.207c2.646,1.512,8.191,3.276,16.633,5.292l22.052,5.292c9.703,2.268,16.886,5.418,21.8,9.325
			c7.687,6.048,11.467,14.743,11.467,26.084C127.036,446.769,122.5,456.471,113.553,464.284z M250.023,472.475h-26.714
			l-52.169-90.728v90.728h-24.824V344.7h27.974l50.909,89.216V344.7h24.824L250.023,472.475L250.023,472.475z M361.795,417.156
			c-7.687,6.301-18.524,9.325-32.637,9.325h-27.092v45.994h-26.462V344.7H331.3c12.853,0,23.06,3.276,30.621,9.829
			c7.686,6.553,11.467,16.759,11.467,30.621C373.262,400.271,369.482,410.981,361.795,417.156z"/>
		<path style="fill:#151975;" d="M341.507,371.162c-3.528-2.772-8.317-4.284-14.617-4.284h-24.824v37.551h24.824
			c6.301,0,11.215-1.512,14.617-4.536c3.528-3.024,5.293-7.939,5.293-14.617C346.8,378.723,345.035,374.06,341.507,371.162z"/>
	</g>
</g>
</svg>
