<svg width="350" height="240" viewBox="0 0 350 240" fill="none"
    xmlns="http://www.w3.org/2000/svg">
    <path d="M94.28 124.11L67.05 106.54V98.98L94.28 81.41V91.49L76.15 102.62V102.9L94.28 114.03V124.11ZM149.665 124.11V114.03L167.795 102.9V102.62L149.665 91.49V81.41L176.895 98.98V106.54L149.665 124.11Z" fill="currentColor"/>
    <path d="M128 82L116 126" stroke="currentColor" stroke-width="8"/>
    <circle cx="264" cy="140" r="56" stroke="currentColor" stroke-width="8"/>
    <path fill-rule="evenodd" clip-rule="evenodd" d="M35 44H299V91.2605C301.866 93.3224 304.543 95.6309 307 98.155V44V36H299H35H27V44V167V175H35H215.26C213.443 172.473 211.817 169.8 210.404 167H35V44Z" fill="currentColor"/>
    <path d="M280 140C280 154.847 277.805 168.113 274.383 177.524C272.666 182.246 270.716 185.786 268.752 188.07C266.777 190.368 265.157 191 264 191C262.843 191 261.223 190.368 259.248 188.07C257.284 185.786 255.334 182.246 253.617 177.524C250.195 168.113 248 154.847 248 140C248 125.153 250.195 111.887 253.617 102.476C255.334 97.7542 257.284 94.2144 259.248 91.9299C261.223 89.6323 262.843 89 264 89C265.157 89 266.777 89.6323 268.752 91.9299C270.716 94.2144 272.666 97.7542 274.383 102.476C277.805 111.887 280 125.153 280 140Z" stroke="currentColor" stroke-width="8"/>
    <line x1="207" y1="141" x2="317" y2="141" stroke="currentColor" stroke-width="8"/>
    <mask id="path-7-inside-1_597_391" fill="white">
        <path fill-rule="evenodd" clip-rule="evenodd" d="M307.038 98.6951C296.106 87.1801 280.651 80 263.519 80C246.387 80 230.933 87.1801 220 98.6951C222.205 101.813 224.942 104.707 228.164 107.284C237.541 114.786 250.258 119 263.519 119C276.78 119 289.498 114.786 298.875 107.284C302.097 104.707 304.834 101.813 307.038 98.6951Z"/>
    </mask>
    <path d="M307.038 98.6951L313.57 103.314L317.363 97.9505L312.84 93.1869L307.038 98.6951ZM220 98.6951L214.198 93.1869L209.676 97.9505L213.468 103.314L220 98.6951ZM228.164 107.284L233.161 101.037L233.161 101.037L228.164 107.284ZM298.875 107.284L293.877 101.037L293.877 101.037L298.875 107.284ZM263.519 88C278.368 88 291.752 94.213 301.237 104.203L312.84 93.1869C300.46 80.1471 282.934 72 263.519 72V88ZM225.802 104.203C235.287 94.213 248.671 88 263.519 88V72C244.104 72 226.579 80.1471 214.198 93.1869L225.802 104.203ZM213.468 103.314C216.128 107.076 219.39 110.51 223.166 113.531L233.161 101.037C230.493 98.9028 228.282 96.5508 226.532 94.0764L213.468 103.314ZM223.166 113.531C234.111 122.287 248.643 127 263.519 127V111C251.874 111 240.97 107.284 233.161 101.037L223.166 113.531ZM263.519 127C278.395 127 292.927 122.287 303.872 113.531L293.877 101.037C286.068 107.284 275.165 111 263.519 111V127ZM303.872 113.531C307.648 110.51 310.911 107.076 313.57 103.314L300.506 94.0764C298.757 96.5508 296.545 98.9028 293.877 101.037L303.872 113.531Z" fill="currentColor" mask="url(#path-7-inside-1_597_391)"/>
    <mask id="path-9-inside-2_597_391" fill="white">
        <path fill-rule="evenodd" clip-rule="evenodd" d="M307.038 179.695C296.106 168.18 280.651 161 263.519 161C246.387 161 230.933 168.18 220 179.695C222.205 182.813 224.942 185.707 228.164 188.284C237.541 195.786 250.258 200 263.519 200C276.78 200 289.498 195.786 298.875 188.284C302.097 185.707 304.834 182.813 307.038 179.695Z"/>
    </mask>
    <path d="M307.038 179.695L313.57 184.314L317.363 178.95L312.84 174.187L307.038 179.695ZM220 179.695L214.198 174.187L209.676 178.95L213.468 184.314L220 179.695ZM228.164 188.284L233.161 182.037L233.161 182.037L228.164 188.284ZM298.875 188.284L293.877 182.037L293.877 182.037L298.875 188.284ZM263.519 169C278.368 169 291.752 175.213 301.237 185.203L312.84 174.187C300.46 161.147 282.934 153 263.519 153V169ZM225.802 185.203C235.287 175.213 248.671 169 263.519 169V153C244.104 153 226.579 161.147 214.198 174.187L225.802 185.203ZM213.468 184.314C216.128 188.076 219.39 191.51 223.166 194.531L233.161 182.037C230.493 179.903 228.282 177.551 226.532 175.076L213.468 184.314ZM223.166 194.531C234.111 203.287 248.643 208 263.519 208V192C251.874 192 240.97 188.284 233.161 182.037L223.166 194.531ZM263.519 208C278.395 208 292.927 203.287 303.872 194.531L293.877 182.037C286.068 188.284 275.165 192 263.519 192V208ZM303.872 194.531C307.648 191.51 310.911 188.076 313.57 184.314L300.506 175.076C298.757 177.551 296.545 179.903 293.877 182.037L303.872 194.531Z" fill="currentColor" mask="url(#path-9-inside-2_597_391)"/>
</svg>
