<svg width="350" height="240" viewBox="0 0 350 240" fill="none"
    xmlns="http://www.w3.org/2000/svg">
    <path d="M323 41C323 38.7909 321.209 37 319 37L283 37C280.791 37 279 38.7909 279 41C279 43.2091 280.791 45 283 45H315V77C315 79.2091 316.791 81 319 81C321.209 81 323 79.2091 323 77V41ZM276.828 88.8284L321.828 43.8284L316.172 38.1716L271.172 83.1716L276.828 88.8284Z" fill="currentColor"/>
    <path d="M33 37C30.7909 37 29 38.7909 29 41L29 77C29 79.2091 30.7909 81 33 81C35.2091 81 37 79.2091 37 77V45H69C71.2091 45 73 43.2091 73 41C73 38.7909 71.2091 37 69 37L33 37ZM80.8284 83.1716L35.8284 38.1716L30.1716 43.8284L75.1716 88.8284L80.8284 83.1716Z" fill="currentColor"/>
    <path d="M29 194C29 196.209 30.7909 198 33 198L69 198C71.2091 198 73 196.209 73 194C73 191.791 71.2091 190 69 190L37 190L37 158C37 155.791 35.2091 154 33 154C30.7909 154 29 155.791 29 158L29 194ZM75.1716 146.172L30.1716 191.172L35.8284 196.828L80.8284 151.828L75.1716 146.172Z" fill="currentColor"/>
    <path d="M319 198C321.209 198 323 196.209 323 194V158C323 155.791 321.209 154 319 154C316.791 154 315 155.791 315 158V190H283C280.791 190 279 191.791 279 194C279 196.209 280.791 198 283 198H319ZM271.172 151.828L316.172 196.828L321.828 191.172L276.828 146.172L271.172 151.828Z" fill="currentColor"/>
    <path d="M139.36 148.57L104.35 125.98V116.26L139.36 93.67V106.63L116.05 120.94V121.3L139.36 135.61V148.57ZM210.57 148.57V135.61L233.88 121.3V120.94L210.57 106.63V93.67L245.58 116.26V125.98L210.57 148.57Z" fill="currentColor"/>
    <path d="M187.664 93.6055L162.664 150.605" stroke="currentColor" stroke-width="8"/>
</svg>
