<svg width="350" height="240" viewBox="0 0 350 240" fill="none"
    xmlns="http://www.w3.org/2000/svg">
    <g clip-path="url(#clip0_586_850)">
        <rect x="29" y="206" width="172" height="292" rx="6" transform="rotate(-90 29 206)" stroke="currentColor" stroke-width="8"/>
        <line x1="67" y1="202" x2="67" y2="30" stroke="currentColor" stroke-width="8"/>
        <line x1="283" y1="202" x2="283" y2="30" stroke="currentColor" stroke-width="8"/>
        <path d="M47 142L47 98" stroke="currentColor" stroke-width="8" stroke-linecap="round"/>
        <rect x="295" y="143" width="45" height="13" rx="4" transform="rotate(-90 295 143)" stroke="currentColor" stroke-width="8"/>
        <path d="M145.2 153.2C141.067 153.2 137.5 152.6 134.5 151.4C131.5 150.2 129 148.467 127 146.2C125.067 143.933 123.6 141.2 122.6 138C121.6 134.733 121.1 131.033 121.1 126.9V86.9H137.1V128.6C137.1 130.867 137.367 132.8 137.9 134.4C138.433 136 139.3 137.233 140.5 138.1C141.7 138.967 143.267 139.4 145.2 139.4C147.133 139.4 148.7 138.967 149.9 138.1C151.167 137.233 152.067 136 152.6 134.4C153.2 132.8 153.5 130.867 153.5 128.6V86.9H168.9V126.9C168.9 131.033 168.433 134.733 167.5 138C166.567 141.2 165.133 143.933 163.2 146.2C161.267 148.467 158.8 150.2 155.8 151.4C152.867 152.6 149.333 153.2 145.2 153.2ZM176.061 152L194.961 118.5L177.161 86.9H194.961L200.761 98.4C201.494 99.8667 202.261 101.467 203.061 103.2C203.861 104.933 204.728 106.867 205.661 109H206.061C206.861 106.867 207.628 104.933 208.361 103.2C209.094 101.467 209.794 99.8667 210.461 98.4L215.661 86.9H232.761L214.961 119.3L233.861 152H216.061L209.461 139.6C208.594 137.867 207.761 136.133 206.961 134.4C206.161 132.667 205.294 130.8 204.361 128.8H203.961C203.228 130.8 202.461 132.667 201.661 134.4C200.928 136.133 200.128 137.867 199.261 139.6L193.161 152H176.061Z" fill="currentColor"/>
    </g>
    <defs>
        <clipPath id="clip0_586_850">
            <rect width="240" height="350" fill="white" transform="translate(0 240) rotate(-90)"/>
        </clipPath>
    </defs>
</svg>
