<svg id="Ebene_1"
    xmlns="http://www.w3.org/2000/svg"
    xmlns:xlink="http://www.w3.org/1999/xlink" x="0px" y="0px" width="546.7px" height="220.336px" viewBox="0 0 546.7 220.336" enable-background="new 0 0 546.7 220.336" xml:space="preserve" class="PageHeader_appLogo__JlhMI" fill="#893f61">
    <g>
        <path d="M93.646,175.826c-1.661,1.25-5.885,5.463-5.445,11.176c0.439,5.715,2.93,13.041,7.033,15.68 c-9.671-0.734-13.334-3.225-13.334-3.225s-6.681-5.889-3.617-16.072c0.87-2.893,3.124-5.162,6.008-6.063 C89.078,175.826,91.424,175.92,93.646,175.826"></path>
        <path d="M90.838,180.557c-1.146,2.197-2.578,4.451,0,14.357c6.74-5.662,10.986-10.242,15.882-12.439 c3.23-1.451,8.587-1.039,8.587-1.039s-7.952-7.924-14.799-6.447C94.862,176.205,91.984,178.357,90.838,180.557"></path>
        <path d="M98.41,190.813l-6.986,5.127c0,0,2.924,6.668,6.986,6.74c6.933,0.127,11.476-3.369,11.476-3.369 S102.466,196.088,98.41,190.813"></path>
        <path d="M112.963,182.754c-5.275,0-14.31,6.078-13.333,7.473c7.172,10.24,46.437,21.738,82.155,30.109 c7.326-4.248,7.033-12.748,7.033-12.748S131.571,194.914,112.963,182.754"></path>
        <path d="M134.086,190.662c0,0-12.76-4.361-17.043-7.908c46.858-15.361,62.85-17.18,70.161-39.557c0,0,0.374,9.842-0.545,23.707 C184.989,192.109,162.892,182.525,134.086,190.662"></path>
        <path d="M76.333,183.193c0,0-0.059,1.617-0.429,3.037c-14.475,1.881-17.338,1.859-28.306,3.41 c-14.579-4.83-37.201-1.813-40.893-23.18c-0.887-7.387-1.182-19.523-0.591-27.795C12.844,167.465,32.701,171.529,76.333,183.193"></path>
        <path d="M80.83,199.615c0,0-4.644-3.529-4.718-11.629c-3.135,1.205-53.588,3.752-75.973,16.154 c-1.192,8.385,5.667,13.41,5.667,13.41S68.588,202.057,80.83,199.615"></path>
        <path d="M186.198,142.262c-7.255-17.189-51.661-16.871-51.568-16.129c0.11,0.871,0.05,1.836-0.004,2.686 c-0.042,0.668-0.09,1.426-0.019,1.77c0.054,0.248,0.105,0.67,0.149,1.186c18.74,2.654,34.656-0.297,43.35,25.066 c3.469-4.02,5.548-7.43,7.99-14.287C186.131,142.453,186.156,142.354,186.198,142.262"></path>
        <path d="M15.002,155.75c5.353-25.43,19.806-21.65,36.419-24.225c0.081-1.688,0.177-3.111,0.281-3.629 c0.133-0.664,0.284-1.021,0.395-1.281c0.074-0.176,0.146-0.344,0.156-1.141c0.005-0.334-41.054-8.714-45.2,11.854 c0,0,0.219,1.949,1.236,4.842C9.581,145.842,11.464,150.803,15.002,155.75"></path>
        <path d="M61.111,146.75c1.084-0.119-0.397-0.24-1.16,4.527c-0.223,1.699-0.672,2.984-0.718,4.809 c-0.076,2.92,0.038,2.725,0.277,5.195c0.083,1.018,0.135,1.586-0.487,2.205c-1.869,1.895-4.489,1.158-6.801,0.854 c-3.38-0.449-2.963,1.191-7.173,1.047c-1.072-0.037-1.601-0.432-2.299-0.463c-1.271-0.061-1.315,0.164-2.265-0.434 c-0.48-0.293-1.222-1.145-0.711-1.787c0.703-0.93,2.551,0.537,5.843-1.549c0.791-0.504,1.482-1.064,2.117-1.58 c0.667-0.545,1.391-0.98,2.133-1.549c1.593-1.203,1.831-2.963,2.327-5.041c0.508-2.156,1.136-2.957,1.025-5.381 C53.533,147.408,60.035,146.869,61.111,146.75"></path>
        <path fill-rule="evenodd" clip-rule="evenodd" d="M67.125,26.414c-2.558,0.091-4.727-0.218-4.722-0.838 c0-1.52,1.494-4.781,1.692-5.36c0.332-0.96,0.752-4.642,0.788-5.277c0.182-0.667,0.436-3.368,0.618-4.014 c0.27-0.955,0.394-2.874,0.166-3.842c-0.312-1.334-0.784-2.802-1.012-4.151c-0.067-0.426,0.97-2.46,1.24-2.584h0.784 c0.384-0.267,1.136-0.239,1.795-0.223c0.566,0.814,3.637,2.864,3.814,3.479c-0.037,0.187-0.073,0.373-0.109,0.56 c-0.172,1.972-0.965,1.308-1.572,2.359c-0.187,0.324-0.26,1.006-0.338,1.346c-0.441,1.935,0.021,1.884,0.021,3.814 c0,1.595,2.813,11.799,1.759,13.478c-0.799,1.268-3.108,0.871-3.969,1.157L67.125,26.414z"></path>
        <path d="M21.718,85.329c1.645,0.293,6.06,0.874,5.822-0.179c-0.073-0.309-3.373-7.293-3.617-7.597 c-0.11-0.137-0.379-0.654-0.503-1.052c-2.788-0.183-2.117-2.65-3.689-5.338c-0.286-0.5-0.621-0.762-0.997-1.31 c-0.596-0.882-2.189-3.427-3.201-3.575l-0.096-0.127c0.508-0.952-0.695-2.358-2.291-2.358c0,0-5.767,2.604-6.554,3.764 c-0.552,0.815-1.429,1.759-1.338,3.591c0.044,0.942,0.417,1.211,0.285,2.176c-0.122,0.89,0.89,2.499,1.264,3.405 c0.485,1.167,0.539,2.417,1.953,3.014c0.12,0.262-0.106-0.072,0.187,0.309c0.449,0.597,1.227,0.89,2.05,1.248 c3.11,1.354,1.525,0.973,2.729,1.909c0.734,0.569,1.767,1.189,2.387,1.863c0.119,0.131,0.208,0.25,0.277,0.362 C17.216,85.947,20.05,85.032,21.718,85.329"></path>
        <path d="M72.288,51.5c0.249-2.82,0.563-6.276,0.817-9.06c0.47-5.207,0.846-12.45-0.254-15.771 c-0.009-0.031-0.052-0.045-0.124-0.045c-0.521,0-2.595,0.712-5.122,0.883c-0.405,0.028-0.811,0.04-1.211,0.04 c-1.674,0-3.229-0.202-4.058-0.202c-0.326,0-0.54,0.031-0.605,0.118c-0.508,0.659-1.533,7.137-1.689,8.138 c-0.83,5.373-0.742,9.286-1.862,11.867c-1.946,4.496-0.509,2.895-2.696,6.486c-1.697,2.792-0.522,1.22-1.51,3.845 c-0.21,0.563-0.397,0.771-0.615,1.266l-1.406,3.531c-0.119,0.187-0.068,0.104-0.187,0.231c-1.824-1.494-0.874-1.422-3.419-2.356 c-0.792-0.293-1.427-0.433-2.094-0.77c-0.516-0.262-1.264-0.854-1.902-0.989c-0.13-0.027-0.275-0.04-0.433-0.04 c-2.831-0.001-9.742,4.228-10.16,4.321c-0.568,0.135-2.701,2.2-3.313,2.67c-2.823,2.192-3.339,1.977-4.968,5.889 c-1.058,2.523-1.562,2.097-1.709,4.596c0.111,0.077,0.247,0.187,0.414,0.341c1.536,1.42,5.822,10.534,5.708,10.949 c-0.021,0.078-0.057,0.112-0.104,0.112c-0.332,0-1.242-1.684-1.615-1.684c-0.053,0-0.095,0.034-0.123,0.111 c-0.143,0.39-1.69,0.629-3.209,0.629c-0.634,0-1.262-0.041-1.783-0.131c-0.248-0.043-0.537-0.061-0.852-0.061 c-1.617,0-3.931,0.474-5.041,0.474c-0.214,0-0.384-0.017-0.494-0.06c-0.001,0-0.002-0.001-0.002-0.001 c0.079,0.55,0.335,1.314,1.312,2.634c1.422,1.91-0.501,3.345-0.898,4.512c-0.794,2.351-0.524,4.639-0.381,6.668 c0.111,1.72-0.254,1.661,1.092,3.254c0.607,0.718,5.581,4.737,7.705,4.848c2.791,0.148,5.207,1.989,7.136,1.989 c0.912,0,1.714-0.411,2.396-1.607c0.719-1.258,0.592-1.445,0.966-2.177l0.368-0.472c0.246-1.069,0.636-2.312,1.292-3.051 c0.033-0.002,0.069-0.003,0.107-0.003c0.693,0,2.119,0.311,3.517,0.311c1.153,0,2.287-0.211,2.976-0.983 c0.228-0.255,0.58-0.45,1.003-0.597c-0.055-0.366-0.112-0.669-0.172-0.876c-0.053-1.168-0.314-4.683-0.314-4.683 c-0.211-0.532-0.608-5.194-0.494-5.68c0.232-1.004-0.112-1.7-1.08-1.7c-0.062,0-0.126,0.003-0.193,0.009 c-0.688,0.345-1.45,4.699-3.425,7.773c-1.572,2.433-2.716,4.722-3.975,7.378c-0.122,0.011-0.238,0.015-0.35,0.015 c-0.281,0-0.538-0.024-0.801-0.024c-0.146,0-0.294,0.007-0.449,0.03c-0.499,0.071-0.74,0.28-1.28,0.28 c-0.036,0-0.073,0-0.111-0.002c0.283-2.514,1.489-3.075,2.595-4.675c1.354-2.006,1.362-2.844,2.044-5.179 c0.262-0.882,0.433-2.005,0.724-2.864c0.308-0.89,1.811-4.535,2.374-4.984c0.224-0.184,0.411-0.244,0.602-0.244 c0.363,0,0.738,0.219,1.399,0.219c0.321,0,0.711-0.052,1.2-0.206c0.306-1.549-0.643-2.529-0.778-3.697 c-0.171-1.502,0.358-2.768,0.389-4.226c0.052-5.485,0.156-4.222,2.081-4.782c0.656-0.194,0.762-0.636,1.593-0.726 c-0.12,1.73-0.488,1.266-0.457,4.952c0.016,1.43,0.187,6.45,0.449,7.789l0.501,2.215c0.254,0.87,0.913,0.875,1.004,1.767 c0.111,1.113-0.472,1.586-0.449,2.138c-0.234,0.869-0.135,0.631-0.068,1.505c0.013,1.025,0.553,4.242,0.486,4.826 c-0.06,0.651,0.023,1.279,0.044,1.922c0.026,0.411,0.058,0.897,0.093,1.426c0.211,0.017,0.416,0.041,0.61,0.071 c0.503,0.314,2.252,2.971,2.636,3.65c0.957,1.692,1.017,3.114,1.097,5.381c0.047,0.648,0.195,1.24,0.293,2.012 c0.397,3.121,0.202,4.137,0.33,6.883c0.08,1.654,0.448,2.68,0.508,4.236c0.128,3.508-0.238,2.578-0.555,4.166 c-0.321,1.598-0.856,18.211-0.168,18.211c0.002,0,0.003,0,0.005,0c3.388-0.441,5.715-0.523,7.518-0.652 c4.685-0.33,4.953-0.449,6.129-0.449c0.076,0,0.154,0,0.238,0.002c1.707-0.092,0.563-6.264,0.509-7.873 c-0.081-2.736,0.539-6.191,0.031-8.721c-0.255-1.234-0.553-2.762-0.553-3.996c-0.008-0.734,0.052-1.52-0.122-2.223 c-0.926-3.771-0.568-6.375-0.394-10.369c0.365-8.656,1.951-6.6,2.062-13.812c0.024-0.815,0.174-1.16,0.203-1.899 c0.083-1.744-0.275-2.463-0.397-4.11c-0.335-4.151-1.863-6.05-1.876-11.491c-0.016-3.598,0.148-3.419,0.47-6.426 c0.173-1.624,1.886-6.406,2.342-8.785C69.956,62.537,71.959,55.257,72.288,51.5"></path>
        <path d="M45.258,102.154c0.29,1.943,0.512,5.675,0.809,6.53c0.837,2.432,0.874,2.738,1.779,3.365 c0.397,0.135,2.888,1.033,2.888,1.033s-1.383-1.653-1.772-4.675c-0.158-1.216-0.371-4.279-0.522-6.558 C47.378,101.761,46.157,101.842,45.258,102.154"></path>
        <path d="M16.373,85.428c-0.897-0.588-0.499,1.094,0.294,1.4c-0.082-0.566,0.021-0.907-0.281-1.394 C16.382,85.432,16.377,85.43,16.373,85.428"></path>
        <path d="M23.769,76.148c-0.45-0.311-0.471-0.037-0.349,0.353c0.105,0.007,0.214,0.012,0.33,0.012 C23.754,76.382,23.761,76.266,23.769,76.148"></path>
        <path d="M120.018,6.686c0.192,0.329,0.265,1.027,0.342,1.372c0.452,1.975-0.228,4.445-0.228,6.416 c0,4.328,0.301,8.437,0.343,12.596c1.945,0.032,4.343-0.075,6.07-0.459c0.722-0.158,1.282,0.203,1.604-0.342 c1.266-1.409-0.633-3.124-1.033-4.006c-0.244-0.555-0.249-1.014-0.456-1.606c-0.332-0.978-0.426-2.343-0.685-3.435 c-0.037-0.649-0.078-1.297-0.114-1.949c-0.193-0.679-0.618-1.515-0.805-2.174c-0.275-0.975-0.228-4.854,0-5.842 c0.317-1.362,0.805-2.859,1.033-4.237c0.073-0.431-0.991-2.509-1.261-2.633h-0.799c-0.395-0.275-1.26-0.579-1.832-0.231 c-0.751,0.457-3.715,2.924-3.897,3.552c0.037,0.189,0.078,0.381,0.115,0.57C118.586,6.289,119.401,5.612,120.018,6.686"></path>
        <path d="M201.452,115.613c-0.327-1.269-1.318-2.49-2.065-3.552c-2.382-3.391-6.273-3.66-7.441-8.587 c-0.264-1.116,0.249-3.397,0.457-4.354c0.202-0.926,0.052-2.574-0.115-3.321v-1.717c-0.295-1.318-0.363-2.916-0.689-4.123 c-0.395-1.489-0.332-3.674-2.06-3.78c-0.374,0.581-1.116,1.375-1.832,1.601c-1.157-4.564-1.982-5.89-6.414-7.215 c-0.856-0.254-2.34-0.737-3.435-0.343c-0.903,0.325-1.447,1.734-2.174,2.06c-1.074,0-3.108-0.386-3.212,0 c-0.181,0.706,0.805,1.087,0.229,1.604c-0.338,0.306-0.602,0.451-1.043,0.617c-0.535,0.112-0.54,0.584-0.67,0.597 c-0.145,0.013-0.55-0.062-0.799,0.002c-0.337,0.089,0.026,0.737-0.316,0.859c-0.343,0.122-1.147,0.493-1.391,0.537 c0-0.016-0.045-0.175-0.094-0.349c-0.039,0.027-0.063,0.055-0.103,0.082c-0.804,0.54-2.366,1.788-3.529,2.932 c-1.193,1.17-2.013,3.328-1.198,4.04c0.078,0.067,2.999,2.052,4.348,2.718c2.833,1.404,5.09,2.221,5.345,2.291 c0.019,0.006,0.068,0.025,0.099,0.037c-0.117-0.714-0.064-1.278,0.466-1.471c0.919-0.553,4.795,1.387,5.988,1.084 c2.128-0.545,3.305-1.414,4.582-2.75c0.202,0.072,0.109,0.023,0.228,0.114c0.509,0.706,0.011,1.614,0,2.519 c-0.015,1.949-0.057,3.793,0.343,5.498c0.378,1.616,0.529,3.282,1.032,4.812c0.441,1.342,1.1,2.647,1.49,4.121 c0.612,2.312,0.685,3.118,1.655,5.165c0.602,1.273,0.986,1.847,2.236,2.854c1.256,1.006-0.56-1.502-0.685-2.291 c0.037,0-0.192-5.904-0.15-5.904c0.43,0.638,1.484,6.93,2.096,7.394c1.494,1.121,1.204,0.669,2.195,2.274 c0.861,1.387,0.892,4.518,1.271,4.709c0.384,0.193,1.271-3.881,0.991-4.762c-0.28-0.877-2.646-4.718-2.646-6.054 s3.072,4.543,3.502,6.169c0.312,1.186-1.167,6.35-0.7,7.127c0.155-1.338,1.811-7.863,1.883-8.556 c0.135-1.243-0.933-5.007-0.928-4.994c0.28,0.96,1.214,0.851,1.359,3.181c0.13,2.114-0.534,6.707-0.28,7.061 c0.275,0.383,2.205-6.233,2.164-7.314C201.426,117.799,201.696,116.578,201.452,115.613"></path>
        <path d="M145.734,162.814c-0.778-0.529-1.443-0.912-2.143-0.859c-0.706,0.055-1.37-0.326-1.671-0.428 c-0.4-0.135-0.742-0.895-1.058-1.131c-1.267-0.943-2.403-1.912-3.664-2.865c-0.643-0.484-0.908-1.393-1.375-2.059 c-0.607-0.865-1.385-1.713-1.946-2.637c-0.332-0.545-0.316-1.061-0.575-1.719c-0.364-0.928-1.126-1.717-1.604-2.518 c-0.426-0.725-0.623-1.596-1.027-2.291H124.6v0.227c0.565,0.738,0.752,1.734,1.146,2.637c1.142,2.615,2.704,6.051,1.832,9.963 v2.063c-0.041,1.152-0.446,3.01,0.571,3.438c0.228,0.141,3.928,0.141,4.582,0c2.817-0.611,8.022,0.121,10.652,0.686 c1.214,0.262,4.167-0.215,4.126-0.457C147.462,164.619,146.512,163.342,145.734,162.814"></path>
        <path d="M173.543,99.126c-3.508-1.153-14.467-6.668-14.292-7.021c0.535-1.066,2.517,0.49,2.828,0.513 c0.312,0.024-0.166-0.381,0.716-1.992c0.747-1.365,4.165-4.421,5.598-5.356c0.351-0.998,0.281-2.991,0.074-3.787 c-0.436-0.278-0.877-0.705-1.375-0.918c-0.976-0.413-1.941-0.467-2.75-1.03c-1.028-0.716-1.754-3.479-2.859-4.237 c-0.841-0.573-1.899-0.397-2.979-0.804c-0.669-0.249-2.599-1.412-3.212-1.487c-0.82-0.22-1.826-0.661-2.63-0.802 c-0.763,0.078-1.573-0.16-2.294,0.229c-0.721,0.389-0.55,1.541-0.913,2.291c-0.237,0.49-1.774,0.832-3.288,1.008 c-3.791,4.713-7.694,12.076-8.82,17.577c-0.393,2.043,0.614,9.019-0.195,9.787c2.519,1.255,6.436,2.292,6.803,2.437 c0.332,0.132,0.633,0.511,0.918,0.687c0.893,0.555,2.045,1.004,2.864,1.378c0.82,0.368,0.696,4.496,1.832,5.266 c3.456,2.334,10.196,1.064,13.974,0.115c1.261-0.152,2.516-0.306,3.777-0.46c2.252-0.55,3.861-1.489,4.924-3.206 c0.26-0.413,0.177-0.859,0.348-1.376c0.597-1.847,0.898-3.785,1.37-5.954C174.131,101.211,173.796,100.12,173.543,99.126"></path>
        <path d="M133.304,78.275c-0.008-0.008-0.016-0.016-0.024-0.024c-0.031,0.003-0.063,0.007-0.097,0.012 C133.224,78.268,133.264,78.271,133.304,78.275"></path>
        <path d="M133.304,78.275c-0.008-0.008-0.016-0.016-0.024-0.024c-0.031,0.003-0.063,0.007-0.097,0.012 C133.224,78.268,133.264,78.271,133.304,78.275"></path>
        <path d="M143.623,75.302l-0.104-0.02c-1.17-1.601-2.711-2.976-3.913-4.565c-0.373-0.491-0.373-0.491-1.24-1.622 c-1.188-1.549-1.095-2.804-1.51-3.762c-0.488-1.126-2.179-5.731-2.293-6.299c-0.115-0.568-1.573-4.071-2.32-7.309 c-0.275-1.19-0.239-1.948-0.239-3.728c0-1.782,0.607-4.799,0.379-6.615c-0.223-1.819-1.069-7.784-1.027-12.928 c-0.695-0.169-1.251-0.623-1.832-0.802c-0.109-0.033-0.269-0.047-0.461-0.048c-0.872,0-2.405,0.291-2.86,0.393 c-2.091,0.477-4.389,0.555-6.755,0.571c-0.074,0.028-0.109-0.003-0.115,0.116c-0.02,2.216-0.347,4.209-0.347,6.642v1.949 c0.13,0.604,0.057,1.515,0.233,2.174c0.213,0.822,0.846,1.694,0.571,2.978c-0.151,0.703-0.047,1.598-0.229,2.405 c-0.633,2.81-0.928,7.288-0.228,10.539c0.037,1.372,0.073,2.747,0.115,4.122c0.674,3.158,0.005,6.907,0.684,10.077v2.063 c0.265,1.25-0.067,2.737,0.229,4.122c0.129,0.592,0.337,2.138,0.228,2.75c-0.306,1.788-0.405,3.882-0.799,5.612 c-0.078,0.84-0.156,1.679-0.229,2.522c-0.223,0.609-1.224,3.424-1.146,3.777c0.223,1.04,0.114,5.179-0.114,6.071 c-0.151,0.6-0.525,1.316-0.691,1.946c-0.363,1.427-0.347,2.994-0.342,4.582c0.042,0.459-0.4,14.095-1.603,19.7 c-0.229,1.08-0.078,2.994,0.119,3.895c0.296,1.379,0.067,2.891,0.343,4.121c0.114,1.297,0.228,2.598,0.342,3.895 c0.675,2.988,0.789,6.127,0.799,9.85h0.12v0.115c0.747,0.1,1.442,0.408,2.173,0.574c0.457,0,8.189,0.102,10.996,0.113 c1.245-2.225,2.06-4.721,2.745-7.559c0.241-0.98,0.144-4.518-0.027-6.135c-0.028-0.264-0.057-0.48-0.088-0.621 c-0.228-1.104,0.187-3.111,0-4.584c-0.086-0.697-0.174-1.689-0.232-2.775c-0.113-2.102-0.113-4.574,0.232-6.041 c0.296-1.235,0.836-11.226,1.376-13.172c0.233-0.835,0.193-1.768,0.558-2.425c0-0.001,0-0.001,0-0.001 c0.265-2.661,0.087-3.619-0.329-3.619c-0.506,0-1.366,1.426-2.207,2.93c-2.768,2.413-3.792,9.069-4.447,12.041 c-0.675,0.273-4.691,2.314-5.154,2.863c0.444-4.021,1.959-5.677,3.721-11.262c0.181-0.501,5.344-7.059,5.791-10.606 c0.036-0.301,0.819-2.765,0.685-3.207c-0.673-1.019-1.605-2.195-0.458-3.321c6.5-0.733,1.942-6.244,0.473-7.962 c-0.254-0.029-0.501-0.043-0.741-0.043c-6.188,0-8.084,9.302-8.9,13.594c0.086,0.564,0.038,0.783-0.098,0.783 c-0.322,0-1.136-1.235-1.811-2.024c-3.699-1.622,0.798-6.739,2.194-9.692c1.664-2.922,7.67-5.745,9.598-5.745 c0.178,0,0.32,0.024,0.422,0.074c1.301,0.635,3.586,5.281,4.288,5.281c0.012,0,0.023-0.002,0.035-0.004 C138.75,81.905,142.501,76.61,143.623,75.302"></path>
        <polygon points="222.462,172.932 214.453,172.932 214.453,155.871 208.596,155.871 208.596,149.105 228.318,149.105  228.318,155.871 222.462,155.871  "></polygon>
        <path d="M235.308,149.105h8.514l9.289,23.828h-8.717l-1.245-3.5h-7.572l-1.178,3.5h-8.481L235.308,149.105z M239.447,157.418 l-1.952,5.891h3.87L239.447,157.418z"></path>
        <polygon points="254.658,149.105 271.048,149.105 271.048,155.768 262.197,155.768 262.197,157.822 270.509,157.822  270.509,164.047 262.197,164.047 262.197,166.27 271.619,166.27 271.619,172.932 254.658,172.932  "></polygon>
        <polygon points="282.958,163.441 282.89,163.441 282.89,172.932 275.117,172.932 275.117,149.105 282.857,149.105 282.857,157.889  282.925,157.889 289.285,149.105 298.708,149.105 289.755,160.01 299.146,172.932 289.318,172.932  "></polygon>
        <polygon points="313.794,172.932 305.717,172.932 299.222,149.105 307.703,149.105 310.26,162.5 310.395,162.5 313.155,149.105  321.535,149.105 324.53,162.5 324.665,162.5 327.256,149.105 335.467,149.105 328.837,172.932 320.761,172.932 317.395,159.471  317.261,159.471  "></polygon>
        <path d="M335.589,160.885c0-1.906,0.336-3.629,1.01-5.166c0.673-1.537,1.598-2.844,2.776-3.922 c1.178-1.076,2.574-1.904,4.189-2.488s3.365-0.875,5.25-0.875s3.635,0.291,5.25,0.875s3.019,1.412,4.207,2.488 c1.188,1.078,2.12,2.385,2.793,3.922s1.01,3.26,1.01,5.166s-0.337,3.645-1.01,5.217c-0.673,1.57-1.604,2.91-2.793,4.02 c-1.188,1.113-2.592,1.969-4.207,2.576c-1.615,0.605-3.365,0.908-5.25,0.908s-3.635-0.303-5.25-0.908 c-1.615-0.607-3.012-1.463-4.189-2.576c-1.179-1.109-2.104-2.449-2.776-4.02C335.925,164.529,335.589,162.791,335.589,160.885  M344.104,160.885c0,0.785,0.117,1.504,0.353,2.152c0.236,0.652,0.561,1.213,0.977,1.684c0.415,0.473,0.914,0.836,1.497,1.094 s1.212,0.387,1.885,0.387s1.296-0.129,1.868-0.387s1.071-0.621,1.497-1.094c0.427-0.471,0.758-1.031,0.993-1.684 c0.235-0.648,0.354-1.367,0.354-2.152c0-0.764-0.118-1.465-0.354-2.104s-0.566-1.178-0.993-1.615 c-0.426-0.438-0.925-0.779-1.497-1.025c-0.572-0.248-1.195-0.371-1.868-0.371s-1.302,0.123-1.885,0.371 c-0.583,0.246-1.082,0.588-1.497,1.025c-0.416,0.438-0.74,0.977-0.977,1.615C344.221,159.42,344.104,160.121,344.104,160.885"></path>
        <polygon points="365.103,149.105 373.08,149.105 379.877,161.188 380.012,161.188 379.675,149.105 387.282,149.105  387.282,172.932 379.104,172.932 372.507,161.557 372.373,161.557 372.709,172.932 365.103,172.932  "></polygon>
        <rect x="390.913" y="160.447" width="9.288" height="5.789"></rect>
        <path d="M403.848,172.932v-23.826h8.885c1.885,0,3.686,0.186,5.402,0.557c1.716,0.369,3.23,1.01,4.543,1.918 c1.313,0.906,2.361,2.113,3.146,3.617s1.178,3.398,1.178,5.688c0,2.086-0.376,3.893-1.127,5.418 c-0.752,1.527-1.757,2.777-3.013,3.752c-1.257,0.977-2.704,1.701-4.341,2.17c-1.639,0.473-3.344,0.707-5.115,0.707H403.848z  M411.555,155.902v10.131h1.481c1.884,0,3.33-0.408,4.341-1.225c1.01-0.814,1.515-2.152,1.515-4.008 c0-1.543-0.505-2.744-1.515-3.605c-1.011-0.861-2.355-1.293-4.038-1.293H411.555z"></path>
        <path d="M428.824,160.885c0-1.906,0.336-3.629,1.01-5.166c0.673-1.537,1.598-2.844,2.775-3.922c1.179-1.076,2.575-1.904,4.19-2.488 s3.365-0.875,5.25-0.875s3.635,0.291,5.25,0.875s3.018,1.412,4.207,2.488c1.188,1.078,2.12,2.385,2.793,3.922s1.01,3.26,1.01,5.166 s-0.337,3.645-1.01,5.217c-0.673,1.57-1.604,2.91-2.793,4.02c-1.189,1.113-2.592,1.969-4.207,2.576 c-1.615,0.605-3.365,0.908-5.25,0.908s-3.635-0.303-5.25-0.908c-1.615-0.607-3.012-1.463-4.19-2.576 c-1.178-1.109-2.103-2.449-2.775-4.02C429.16,164.529,428.824,162.791,428.824,160.885 M437.338,160.885 c0,0.785,0.117,1.504,0.353,2.152c0.236,0.652,0.561,1.213,0.977,1.684c0.415,0.473,0.914,0.836,1.497,1.094 s1.212,0.387,1.885,0.387s1.296-0.129,1.868-0.387s1.071-0.621,1.497-1.094c0.427-0.471,0.758-1.031,0.993-1.684 c0.235-0.648,0.354-1.367,0.354-2.152c0-0.764-0.118-1.465-0.354-2.104s-0.566-1.178-0.993-1.615 c-0.426-0.438-0.925-0.779-1.497-1.025c-0.572-0.248-1.195-0.371-1.868-0.371s-1.302,0.123-1.885,0.371 c-0.583,0.246-1.082,0.588-1.497,1.025c-0.416,0.438-0.74,0.977-0.977,1.615C437.456,159.42,437.338,160.121,437.338,160.885"></path>
        <path d="M217.664,126.41c2.019,0,4.327-0.576,5.553-3.678l0.432-1.082l-11.754-25.528c-0.433-0.937-0.721-1.153-1.586-1.153h-1.371 V84.512h9.086c2.092,0,3.606,1.082,4.327,3.029l5.481,14.999c0.721,2.019,1.37,5.769,1.37,5.769h0.144c0,0,0.649-3.75,1.226-5.769 l4.111-14.999c0.504-1.947,2.451-3.029,4.398-3.029h9.303v10.457h-1.37c-0.866,0-1.371,0.216-1.731,1.153l-11.249,29.493 c-3.173,8.223-9.592,11.18-15.505,11.18c-6.418,0-10.456-3.967-10.456-3.967l4.471-8.799 C212.544,124.029,214.707,126.41,217.664,126.41"></path>
        <path d="M268.591,83.647c10.96,0,17.164,7.644,17.164,17.956c0,1.226-0.289,3.75-0.289,3.75h-23.437 c0.938,4.687,4.688,6.779,8.653,6.779c5.337,0,9.88-3.894,9.88-3.894l4.976,8.365c0,0-5.986,5.913-15.865,5.913 c-13.269,0-20.408-9.591-20.408-19.47C249.265,92.156,256.62,83.647,268.591,83.647 M272.99,97.781 c0-2.308-1.803-4.759-4.399-4.759c-3.605,0-5.408,2.019-6.202,4.759H272.99z"></path>
        <path d="M309.307,83.647c11.754,0,21.057,7.86,21.057,19.542c0,11.609-9.303,19.326-20.984,19.326 c-11.683,0-20.985-7.717-20.985-19.326C288.394,91.507,297.697,83.647,309.307,83.647 M309.379,112.131 c4.543,0,8.437-3.389,8.437-8.941c0-5.625-3.894-9.158-8.437-9.158c-4.544,0-8.438,3.533-8.438,9.158 C300.941,108.742,304.835,112.131,309.379,112.131"></path>
        <path d="M334.821,82.132c0-1.009-0.576-1.586-1.586-1.586h-2.74V70.089h11.538c3.678,0,5.264,1.587,5.264,5.265v34.253 c0,1.01,0.577,1.587,1.588,1.587h2.739v10.456h-11.538c-3.678,0-5.265-1.586-5.265-5.264V82.132z"></path>
        <path d="M350.981,126.121c2.452,0,6.707-0.576,6.707-4.758V96.556c0-1.01-0.577-1.587-1.587-1.587h-2.74V84.513h11.538 c3.678,0,5.265,1.586,5.265,5.264v32.811c0,12.477-11.683,14.063-17.451,14.063c-2.02,0-3.317-0.217-3.317-0.217v-10.385 C349.395,126.049,350.043,126.121,350.981,126.121 M358.481,70.089h10.456v10.096h-10.456V70.089z"></path>
        <path d="M394.012,83.647c10.962,0,17.163,7.644,17.163,17.956c0,1.226-0.288,3.75-0.288,3.75H387.45 c0.938,4.687,4.688,6.779,8.654,6.779c5.336,0,9.879-3.894,9.879-3.894l4.976,8.365c0,0-5.984,5.913-15.864,5.913 c-13.269,0-20.408-9.591-20.408-19.47C374.686,92.156,382.042,83.647,394.012,83.647 M398.412,97.781 c0-2.308-1.803-4.759-4.399-4.759c-3.605,0-5.408,2.019-6.201,4.759H398.412z"></path>
        <path d="M434.729,83.647c11.754,0,21.057,7.86,21.057,19.542c0,11.609-9.303,19.326-20.984,19.326 c-11.683,0-20.985-7.717-20.985-19.326C413.816,91.507,423.119,83.647,434.729,83.647 M434.801,112.131 c4.543,0,8.437-3.389,8.437-8.941c0-5.625-3.894-9.158-8.437-9.158c-4.544,0-8.438,3.533-8.438,9.158 C426.363,108.742,430.257,112.131,434.801,112.131"></path>
        <path d="M461.325,96.555c0-1.01-0.577-1.586-1.587-1.586h-2.74V84.512h11.105c3.39,0,5.192,1.659,5.192,4.183V89.2 c0,0.36-0.072,0.865-0.072,0.865h0.145c1.73-2.885,5.191-6.418,11.754-6.418c7.5,0,13.341,3.461,13.341,13.917v12.043 c0,1.01,0.577,1.587,1.587,1.587h2.74v10.456h-11.538c-3.678,0-5.265-1.586-5.265-5.264V99.872c0-3.462-1.37-4.903-4.11-4.903 c-3.894,0-6.273,2.163-7.355,5.336c-0.505,1.442-0.721,3.101-0.721,4.903v16.442h-12.476V96.555z"></path>
        <path d="M520.595,83.646c7.572,0,10.745,4.327,10.745,4.327h0.144v-0.505c0-1.01,1.154-2.956,3.967-2.956H546.7v10.456h-2.597 c-0.937,0-1.586,0.505-1.586,1.37v21.923c0,13.557-10.816,18.531-20.984,18.531c-4.976,0-10.456-1.441-14.063-3.316l3.606-9.734 c0,0,4.543,2.379,10.384,2.379c4.471,0,8.582-1.658,8.582-7.139v-0.576c0-0.434,0.071-1.371,0.071-1.371h-0.144 c-2.164,2.379-4.977,3.533-9.303,3.533c-11.178,0-16.73-9.158-16.73-18.677C503.937,92.445,509.345,83.646,520.595,83.646  M530.331,102.036c0-6.562-3.462-8.004-7.211-8.004c-4.399,0-6.635,3.172-6.635,7.427c0,4.616,2.163,8.726,7.139,8.726 C526.869,110.185,530.331,108.526,530.331,102.036"></path>
        <path fill-rule="evenodd" clip-rule="evenodd" d="M102.45,40.602c-1.338,0.493-2.8,0.021-3.616-1.008 c0.037,5.654,0.344,10.026-2.894,13.703c0.191-3.282-0.558-5.096-1.447-7.859c-0.762,0.607-2.739,0.638-3.858,1.008 c-1.848,0.604-3.697,1.208-5.546,1.813c-1.299,0.655-2.634,2.21-4.34,0.806c-2.24-3.624,0.364-5.919,0-9.471 c-1.529-0.392-2.907-1.147-2.653-2.619c1.059-1.123,2.84-0.785,4.341-1.008c1.217-0.427,3.125-1.529,4.34-2.216 c2.617-0.472,5.915,4.251,1.929,4.433c-5.018,2.142-5.077-1.229-4.581,6.045c1.981-1.433,11.662-1.163,10.61-4.634 c0.019-4.091-0.392-8.131-0.242-12.292c-0.729-1.69-3.372-2.458-3.617-4.232c1.628-2.078,7.008-0.034,7.958,2.418 c0.737,3.337-0.015,7.549,0.241,11.083c5.786,1.043,2.629-6.127,3.376-9.874c0.738-3.27-1.007-5.286-3.618-6.85 c-0.232-0.366-1.06-0.88-0.482-1.21c0.146-0.482,0.077-0.374,0.483-0.604c2.271-1.173,5.134,0.321,6.751,1.612 c1.451,0.661,1.888,1.878,1.688,3.425c-0.708,4.484,0.003,10.368-0.242,15.315c-0.154,7.823,0.99,16.227-3.134,23.172 c-1.073-0.52,0.293-4.139-0.241-5.642C102.628,51.724,102.659,45.938,102.45,40.602 M86.295,26.497 c3.022-0.5,6.165,2.146,3.617,4.03c-3.206,0.775-5.87,1.882-9.404,2.621c-3.516-1.483-5.371-4.073,0-4.032 C82.363,28.606,84.534,28.16,86.295,26.497 M102.45,105.284c0.8-3.604-0.144-6.707-0.241-10.478 c-2.039,0.362-2.744,1.819-4.823,1.41c-4.723-1.995-4.052-4.506,0.966-4.231c5.85-0.422,3.41-5.709,3.857-10.277 c1.868-6.55-7.015-8.17-3.617-10.075c4.059,0.111,9.462,1.781,8.44,5.843C106.768,87.069,108.404,99.888,102.45,105.284  M85.571,101.858c-0.781,0.187-0.969,0.575-1.687,0.806c0.013-0.396-0.179-0.159-0.242-0.604c1.624-2.155,1.923-6.555,2.412-10.277 c-2.672,0.072-4.185,2.434-6.993,1.209c-5.306-3.68-2.149-3.961,2.411-4.231c1.844-0.481,4.186-1.026,6.27-1.209 c1.183-2.552,2.111-3.226,2.893-6.247c-1.332-1.344-1.53-2.133-3.376-1.007c-1.4,2.65-2.715,2.81-5.305,1.813 c-3.986-1.671-0.724-4.298,2.171-4.634c1.698-1.435,3.631-2.591,6.269-2.418c2.29,1.487,4.695,3.625,4.823,7.455 c-0.785,1.496-3.128,2.659-4.1,4.433c2-0.551,6.588-2.356,6.029,2.015c-2.161,1.475-4.674,1.089-7.475,2.015 c3.2,2.123-0.215,5.975-0.964,7.658C88.442,100.069,86.309,100.481,85.571,101.858 M89.188,101.254 c11.45,1.358-0.085,11.5,9.886,8.261c2.714-1.271,8.509-2.543,6.029,2.621c-6.617,4.804-11.618,1.912-13.985-4.233 C90.365,105.897,84.59,102.561,89.188,101.254 M92.805,136.113c0.045,3.143-1.154,4.668-1.205,7.859 c5.792,0.787,9.244-3.975,14.226-1.613c2.612,3.621-0.368,4.625-3.376,4.836c-4.481-0.461-8.584,2.391-12.779,0.607 c-2.602-3.33-0.739-6.41-0.965-10.076c-2.183-1.277-6.748-3.619-3.135-5.645c3.023-0.023,6.701,0.727,9.646-0.402 c4.03,0.088,7.557-5.152,11.091-0.604c0.591,0.813,0.397,1.654,0,2.619C102.066,136.082,97.849,134.898,92.805,136.113  M98.11,157.473c0.27-3.914-4.324-5.297-3.376-8.262c2.572-0.633,5.033-0.104,6.752,2.016c1.538,1.459-0.939,4.781,0.241,6.045 c3.555-0.682,8.254-3.064,11.333,0.805c0.663,5.6-5.346,2.602-7.958,2.42c-8.833-0.432-16.098,2.301-23.147,2.418 c-3.367-1.361-9.075-5.979-0.964-5.24C86.445,158.398,92.683,157.674,98.11,157.473"></path>
    </g>
</svg>