<svg width="2032" height="924" viewBox="0 0 2032 924"
    xmlns="http://www.w3.org/2000/svg">
    <path fill-rule="evenodd" clip-rule="evenodd" d="M1957.39 252.649C1807.7 203.707 1623.72 174.859 1424.84 174.859C922.535 174.859 515.338 358.87 515.338 585.859C515.338 685.997 594.585 777.769 726.286 849.07C497.916 774.404 349.338 652.973 349.338 515.859C349.338 288.87 756.535 104.859 1258.84 104.859C1539.55 104.859 1790.56 162.328 1957.39 252.649Z" fill="currentColor"/>
    <rect x="1213.6" y="355.473" width="467.519" height="95.7333" transform="rotate(90 1213.6 355.473)" fill="currentColor"/>
    <path fill-rule="evenodd" clip-rule="evenodd" d="M291.971 475.938C309.274 593.079 429.368 711.461 612.61 805.068C493.613 714.138 429.616 611.148 445.203 512.231C445.828 508.267 446.576 504.335 447.447 500.437L291.971 475.938Z" fill="currentColor"/>
    <path fill-rule="evenodd" clip-rule="evenodd" d="M75 86.0487L323.259 563.584L408.2 519.425L177.154 75C142.62 77.9646 108.549 81.6578 75 86.0487Z" fill="currentColor"/>
</svg>