<svg xmlns="http://www.w3.org/2000/svg" version="1.1" viewBox="-5.0 -10.0 110.0 110.0">
    <path d="m72.5 20.531h-10c-0.88281 0-1.6016-0.71484-1.6016-1.5977 0-0.88281 0.71875-1.6016 1.6016-1.6016h10c0.88281 0 1.6016 0.71875 1.6016 1.6016 0 0.88281-0.71875 1.5977-1.6016 1.5977z"/>
    <path d="m37.5 20.531h-10c-0.88281 0-1.6016-0.71484-1.6016-1.5977 0-0.88281 0.71875-1.6016 1.6016-1.6016h10c0.88281 0 1.6016 0.71875 1.6016 1.6016 0 0.88281-0.71875 1.5977-1.6016 1.5977z"/>
    <path d="m55 20.531h-10c-0.88281 0-1.6016-0.71484-1.6016-1.5977 0-0.88281 0.71875-1.6016 1.6016-1.6016h10c0.88281 0 1.6016 0.71875 1.6016 1.6016 0 0.88281-0.71875 1.5977-1.6016 1.5977z"/>
    <path d="m90 90.531h-80c-0.88281 0-1.6016-0.71484-1.6016-1.5977v-70c0-0.88672 0.71875-1.6016 1.6016-1.6016h10c0.88281 0 1.6016 0.71484 1.6016 1.6016 0 0.88281-0.71875 1.5977-1.6016 1.5977h-8.3984v66.801h76.797v-66.801h-8.3984c-0.88281 0-1.6016-0.71484-1.6016-1.5977 0-0.88672 0.71875-1.6016 1.6016-1.6016h10c0.42578 0 0.83203 0.16797 1.1328 0.46875 0.29688 0.30078 0.46875 0.70703 0.46875 1.1328v70c0 0.42188-0.17187 0.82812-0.46875 1.1289-0.30078 0.30078-0.70703 0.46875-1.1328 0.46875z"/>
    <path d="m25.285 28.398h-3.0703c-2.1016 0-3.8125-1.5-3.8125-3.3398l-0.003906-12.25c0-1.8438 1.7109-3.3398 3.8125-3.3398h3.0703c2.1016 0 3.8125 1.5 3.8125 3.3398l0.007812 12.25c0 1.8398-1.7109 3.3398-3.8164 3.3398zm-3.6836-3.3984c0.066407 0.070312 0.27344 0.19922 0.61328 0.19922h3.0703c0.33984 0 0.54688-0.12891 0.61328-0.19922v-12.133c-0.066407-0.070313-0.27344-0.19922-0.61328-0.19922h-3.0703c-0.33984 0-0.54688 0.12891-0.61328 0.19922z"/>
    <path d="m42.785 28.398h-3.0703c-2.1016 0-3.8125-1.5-3.8125-3.3398l-0.003906-12.25c0-1.8438 1.7109-3.3398 3.8125-3.3398h3.0703c2.1016 0 3.8125 1.5 3.8125 3.3398l0.007812 12.25c0 1.8398-1.7109 3.3398-3.8164 3.3398zm-3.6836-3.3984c0.066407 0.070312 0.27344 0.19922 0.61328 0.19922h3.0703c0.33984 0 0.54688-0.12891 0.61328-0.19922v-12.133c-0.066407-0.070313-0.27344-0.19922-0.61328-0.19922h-3.0703c-0.33984 0-0.54688 0.12891-0.61328 0.19922z"/>
    <path d="m60.285 28.398h-3.0703c-2.1016 0-3.8125-1.5-3.8125-3.3398l-0.003906-12.25c0-1.8438 1.7109-3.3398 3.8125-3.3398h3.0703c2.1016 0 3.8125 1.5 3.8125 3.3398l0.007812 12.25c0 1.8398-1.7109 3.3398-3.8164 3.3398zm-3.6836-3.3984c0.066407 0.070312 0.27344 0.19922 0.61328 0.19922h3.0703c0.33984 0 0.54688-0.12891 0.61328-0.19922v-12.133c-0.066407-0.070313-0.27344-0.19922-0.61328-0.19922h-3.0703c-0.33984 0-0.54688 0.12891-0.61328 0.19922z"/>
    <path d="m77.785 28.398h-3.0703c-2.1016 0-3.8125-1.5-3.8125-3.3398l-0.003906-12.25c0-1.8438 1.7109-3.3398 3.8125-3.3398h3.0703c2.1016 0 3.8125 1.5 3.8125 3.3398l0.007812 12.25c0 1.8398-1.7109 3.3398-3.8164 3.3398zm-3.6836-3.3984c0.066407 0.070312 0.27344 0.19922 0.61328 0.19922h3.0703c0.33984 0 0.54688-0.12891 0.61328-0.19922v-12.133c-0.066407-0.070313-0.27344-0.19922-0.61328-0.19922h-3.0703c-0.33984 0-0.54688 0.12891-0.61328 0.19922z"/>
    <path d="m90 36.262h-80c-0.88281 0-1.6016-0.71484-1.6016-1.5977 0-0.88281 0.71875-1.6016 1.6016-1.6016h80c0.88281 0 1.6016 0.71875 1.6016 1.6016 0 0.88281-0.71875 1.5977-1.6016 1.5977z"/>
    <path d="m27.5 52.824h-7.5c-0.88281 0-1.6016-0.71484-1.6016-1.5977v-7.5c0-0.88281 0.71875-1.6016 1.6016-1.6016h7.5c0.42578 0 0.83203 0.16797 1.1328 0.46875 0.29688 0.30078 0.46875 0.70703 0.46875 1.1328v7.5c0 0.42188-0.17187 0.83203-0.46875 1.1289-0.30078 0.30078-0.70703 0.46875-1.1328 0.46875zm-5.8984-3.1992h4.3008v-4.3008h-4.3008z"/>
    <path d="m27.5 67.199h-7.5c-0.88281 0-1.6016-0.71484-1.6016-1.5977v-7.5c0-0.88672 0.71875-1.6016 1.6016-1.6016h7.5c0.42578 0 0.83203 0.16797 1.1328 0.46875 0.29688 0.30078 0.46875 0.70703 0.46875 1.1328v7.5c0 0.42188-0.17187 0.82813-0.46875 1.1289-0.30078 0.30078-0.70703 0.46875-1.1328 0.46875zm-5.8984-3.1992h4.3008l-0.003906-4.3008h-4.2969z"/>
    <path d="m27.5 81.574h-7.5c-0.88281 0-1.6016-0.71484-1.6016-1.5977v-7.5c0-0.88281 0.71875-1.6016 1.6016-1.6016h7.5c0.42578 0 0.83203 0.16797 1.1328 0.46875 0.29688 0.30078 0.46875 0.70703 0.46875 1.1328v7.5c0 0.42188-0.17187 0.83203-0.46875 1.1289-0.30078 0.30078-0.70703 0.46875-1.1328 0.46875zm-5.8984-3.1992h4.3008v-4.3008h-4.3008z"/>
    <path d="m45 52.824h-7.5c-0.88281 0-1.6016-0.71484-1.6016-1.5977v-7.5c0-0.88281 0.71875-1.6016 1.6016-1.6016h7.5c0.42578 0 0.83203 0.16797 1.1328 0.46875 0.29688 0.30078 0.46875 0.70703 0.46875 1.1328v7.5c0 0.42188-0.17187 0.83203-0.46875 1.1289-0.30078 0.30078-0.70703 0.46875-1.1328 0.46875zm-5.8984-3.1992h4.3008v-4.3008h-4.3008z"/>
    <path d="m45 67.199h-7.5c-0.88281 0-1.6016-0.71484-1.6016-1.5977v-7.5c0-0.88672 0.71875-1.6016 1.6016-1.6016h7.5c0.42578 0 0.83203 0.16797 1.1328 0.46875 0.29688 0.30078 0.46875 0.70703 0.46875 1.1328v7.5c0 0.42188-0.17187 0.82813-0.46875 1.1289-0.30078 0.30078-0.70703 0.46875-1.1328 0.46875zm-5.8984-3.1992h4.3008l-0.003906-4.3008h-4.2969z"/>
    <path d="m45 81.574h-7.5c-0.88281 0-1.6016-0.71484-1.6016-1.5977v-7.5c0-0.88281 0.71875-1.6016 1.6016-1.6016h7.5c0.42578 0 0.83203 0.16797 1.1328 0.46875 0.29688 0.30078 0.46875 0.70703 0.46875 1.1328v7.5c0 0.42188-0.17187 0.83203-0.46875 1.1289-0.30078 0.30078-0.70703 0.46875-1.1328 0.46875zm-5.8984-3.1992h4.3008v-4.3008h-4.3008z"/>
    <path d="m62.812 52.824h-7.5c-0.88281 0-1.6016-0.71484-1.6016-1.5977v-7.5c0-0.88281 0.71875-1.6016 1.6016-1.6016h7.5c0.42578 0 0.83203 0.16797 1.1328 0.46875 0.29688 0.30078 0.46484 0.70703 0.46484 1.1328v7.5c0 0.42188-0.16797 0.83203-0.46484 1.1289-0.30078 0.30078-0.70703 0.46875-1.1328 0.46875zm-5.8984-3.1992h4.3008v-4.3008h-4.3008z"/>
    <path d="m62.812 67.199h-7.5c-0.88281 0-1.6016-0.71484-1.6016-1.5977v-7.5c0-0.88672 0.71875-1.6016 1.6016-1.6016h7.5c0.42578 0 0.83203 0.16797 1.1328 0.46875 0.29688 0.30078 0.46484 0.70703 0.46484 1.1328v7.5c0 0.42188-0.16797 0.82813-0.46484 1.1289-0.30078 0.30078-0.70703 0.46875-1.1328 0.46875zm-5.8984-3.1992h4.3008l-0.003906-4.3008h-4.3008z"/>
    <path d="m62.812 81.574h-7.5c-0.88281 0-1.6016-0.71484-1.6016-1.5977v-7.5c0-0.88281 0.71875-1.6016 1.6016-1.6016h7.5c0.42578 0 0.83203 0.16797 1.1328 0.46875 0.29688 0.30078 0.46484 0.70703 0.46484 1.1328v7.5c0 0.42188-0.16797 0.83203-0.46484 1.1289-0.30078 0.30078-0.70703 0.46875-1.1328 0.46875zm-5.8984-3.1992h4.3008v-4.3008h-4.3008z"/>
    <path d="m80 52.824h-7.5c-0.88281 0-1.6016-0.71484-1.6016-1.5977v-7.5c0-0.88281 0.71875-1.6016 1.6016-1.6016h7.5c0.42578 0 0.83203 0.16797 1.1328 0.46875 0.29688 0.30078 0.46875 0.70703 0.46875 1.1328v7.5c0 0.42188-0.17187 0.83203-0.46875 1.1289-0.30078 0.30078-0.70703 0.46875-1.1328 0.46875zm-5.8984-3.1992h4.3008v-4.3008h-4.3008z"/>
    <path d="m80 67.199h-7.5c-0.88281 0-1.6016-0.71484-1.6016-1.5977v-7.5c0-0.88672 0.71875-1.6016 1.6016-1.6016h7.5c0.42578 0 0.83203 0.16797 1.1328 0.46875 0.29688 0.30078 0.46875 0.70703 0.46875 1.1328v7.5c0 0.42188-0.17187 0.82813-0.46875 1.1289-0.30078 0.30078-0.70703 0.46875-1.1328 0.46875zm-5.8984-3.1992h4.3008l-0.003906-4.3008h-4.2969z"/>
    <path d="m80 81.574h-7.5c-0.88281 0-1.6016-0.71484-1.6016-1.5977v-7.5c0-0.88281 0.71875-1.6016 1.6016-1.6016h7.5c0.42578 0 0.83203 0.16797 1.1328 0.46875 0.29688 0.30078 0.46875 0.70703 0.46875 1.1328v7.5c0 0.42188-0.17187 0.83203-0.46875 1.1289-0.30078 0.30078-0.70703 0.46875-1.1328 0.46875zm-5.8984-3.1992h4.3008v-4.3008h-4.3008z"/>
</svg>