<svg id="Ebene_1" x="0px" y="0px" width="54px" height="22px" xml:space="preserve" viewBox="0 0 1882 774" fill="none" enable-background="new 0 0 1882 774"
    xmlns="http://www.w3.org/2000/svg"
    xmlns:xlink="http://www.w3.org/1999/xlink">
    <g clip-path="url(#clip0_439_693)">
        <path fill-rule="evenodd" clip-rule="evenodd" d="M1882.39 177.649C1732.7 128.707 1548.72 99.8594 1349.84 99.8594C847.535 99.8594 440.338 283.87 440.338 510.859C440.338 610.997 519.585 702.769 651.286 774.07C422.916 699.404 274.338 577.973 274.338 440.859C274.338 213.87 681.535 29.8594 1183.84 29.8594C1464.55 29.8594 1715.56 87.3276 1882.39 177.649Z" fill="currentColor"/>
        <rect x="1138.6" y="280.473" width="467.519" height="95.7333" transform="rotate(90 1138.6 280.473)" fill="currentColor"/>
        <path fill-rule="evenodd" clip-rule="evenodd" d="M218.75 431.821L252.069 494.553C302.918 579.539 403.301 661.458 537.61 730.068C418.613 639.138 354.616 536.148 370.203 437.231C370.828 433.267 371.576 429.335 372.447 425.437L318.945 417.006L102.154 0C67.62 2.96464 33.5494 6.65783 0 11.0487L218.75 431.821Z" fill="currentColor"/>
    </g>
    <defs>
        <clipPath id="clip0_439_693">
            <rect width="1882" height="774" />
        </clipPath>
    </defs>
</svg>
