<svg viewBox="0 0 1920 1080"
    xmlns="http://www.w3.org/2000/svg">
    <defs>
        <clipPath id="spikeShapes">
            <polygon points="0,300 1620,400 0,400"/>
            <!-- <polygon points="0,500 1620,600 0,590"/> -->
            <polygon points="1920,800 620,900 1920,850 "/>
            <polygon points="0,1300 1020,1350 0,1400"/>
            <polygon points="1920,1500 320,1600 1920,1610 "/>
            <polygon points="1920,2000 1000,2040 1920,2050"/>
            <polygon points="0,2000 1420,2150 0,2100"/>
            <polygon points="0,2500 1020,2540 0,2550"/>
            <polygon points="0,2850 1220,2910 0,2940"/>
            <polygon points="1900,3150 600,3240 1920,3250"/>
            <polygon points="1900,3600 300,3650 1920,3710"/>
            <polygon points="0,4090 1220,4140 0,4200"/>
            <polygon points="1900,4600 300,4650 1920,4570"/>
            <!-- <polygon points="0,1000 1020,1100 0,900"/> -->
        </clipPath>
    </defs>
</svg>