<svg width="350" height="240" viewBox="0 0 350 240" fill="none"
    xmlns="http://www.w3.org/2000/svg">
    <mask id="path-1-inside-1_618_238" fill="white">
        <path fill-rule="evenodd" clip-rule="evenodd" d="M179 77H48C41.3726 77 36 82.3726 36 89V151C36 157.627 41.3726 163 48 163H58.25V171L58.25 188.373L58.5 188.23V189.383L90.3397 171H90.4485L104.47 163H179C185.627 163 191 157.627 191 151V89C191 82.3726 185.627 77 179 77ZM106.34 171H179C190.046 171 199 162.046 199 151V89C199 77.9543 190.046 69 179 69H48C36.9543 69 28 77.9543 28 89V151C28 162.046 36.9543 171 48 171H50.5V196.311C50.5 199.39 53.8333 201.315 56.5 199.775L106.34 171Z"/>
    </mask>
    <path fill-rule="evenodd" clip-rule="evenodd" d="M179 77H48C41.3726 77 36 82.3726 36 89V151C36 157.627 41.3726 163 48 163H58.25V171L58.25 188.373L58.5 188.23V189.383L90.3397 171H90.4485L104.47 163H179C185.627 163 191 157.627 191 151V89C191 82.3726 185.627 77 179 77ZM106.34 171H179C190.046 171 199 162.046 199 151V89C199 77.9543 190.046 69 179 69H48C36.9543 69 28 77.9543 28 89V151C28 162.046 36.9543 171 48 171H50.5V196.311C50.5 199.39 53.8333 201.315 56.5 199.775L106.34 171Z" fill="currentColor"/>
    <path d="M58.25 163H66.25V155H58.25V163ZM58.25 171L66.25 171V171H58.25ZM58.25 188.373L50.25 188.373L50.25 202.148L62.2145 195.322L58.25 188.373ZM58.5 188.23H66.5V174.456L54.5355 181.282L58.5 188.23ZM58.5 189.383H50.5V203.239L62.5 196.311L58.5 189.383ZM90.3397 171V163H88.1962L86.3397 164.072L90.3397 171ZM90.4485 171V179H92.5702L94.4131 177.949L90.4485 171ZM104.47 163V155H102.348L100.505 156.051L104.47 163ZM106.34 171V163H104.196L102.34 164.072L106.34 171ZM50.5 171H58.5V163H50.5V171ZM56.5 199.775L60.5 206.703L60.5 206.703L56.5 199.775ZM48 85H179V69H48V85ZM44 89C44 86.7909 45.7909 85 48 85V69C36.9543 69 28 77.9543 28 89H44ZM44 151V89H28V151H44ZM48 155C45.7909 155 44 153.209 44 151H28C28 162.046 36.9543 171 48 171V155ZM58.25 155H48V171H58.25V155ZM66.25 171V163H50.25V171H66.25ZM66.25 188.373L66.25 171L50.25 171L50.25 188.373L66.25 188.373ZM54.5355 181.282L54.2855 181.424L62.2145 195.322L62.4645 195.179L54.5355 181.282ZM66.5 189.383V188.23H50.5V189.383H66.5ZM86.3397 164.072L54.5 182.454L62.5 196.311L94.3397 177.928L86.3397 164.072ZM90.4485 163H90.3397V179H90.4485V163ZM100.505 156.051L86.484 164.051L94.4131 177.949L108.434 169.949L100.505 156.051ZM179 155H104.47V171H179V155ZM183 151C183 153.209 181.209 155 179 155V171C190.046 171 199 162.046 199 151H183ZM183 89V151H199V89H183ZM179 85C181.209 85 183 86.7909 183 89H199C199 77.9543 190.046 69 179 69V85ZM106.34 179H179V163H106.34V179ZM179 179C194.464 179 207 166.464 207 151H191C191 157.627 185.627 163 179 163V179ZM207 151V89H191V151H207ZM207 89C207 73.536 194.464 61 179 61V77C185.627 77 191 82.3726 191 89H207ZM179 61H48V77H179V61ZM48 61C32.536 61 20 73.536 20 89H36C36 82.3726 41.3726 77 48 77V61ZM20 89V151H36V89H20ZM20 151C20 166.464 32.536 179 48 179V163C41.3726 163 36 157.627 36 151H20ZM48 179H50.5V163H48V179ZM42.5 171V196.311H58.5V171H42.5ZM42.5 196.311C42.5 205.548 52.5 211.322 60.5 206.703L52.5 192.847C55.1667 191.307 58.5 193.232 58.5 196.311H42.5ZM60.5 206.703L110.34 177.928L102.34 164.072L52.5 192.847L60.5 206.703Z" fill="currentColor" mask="url(#path-1-inside-1_618_238)"/>
    <mask id="path-3-inside-2_618_238" fill="white">
        <path fill-rule="evenodd" clip-rule="evenodd" d="M305 44H174C167.373 44 162 49.3726 162 56V69H154V56C154 44.9543 162.954 36 174 36H305C316.046 36 325 44.9543 325 56V118C325 129.046 316.046 138 305 138H302.5V163.311C302.5 166.39 299.167 168.315 296.5 166.775L246.66 138H199V130H248.53L262.551 138H262.66L294.5 156.383V155.23L294.75 155.373V138V130H305C311.627 130 317 124.627 317 118V56C317 49.3726 311.627 44 305 44Z"/>
    </mask>
    <path fill-rule="evenodd" clip-rule="evenodd" d="M305 44H174C167.373 44 162 49.3726 162 56V69H154V56C154 44.9543 162.954 36 174 36H305C316.046 36 325 44.9543 325 56V118C325 129.046 316.046 138 305 138H302.5V163.311C302.5 166.39 299.167 168.315 296.5 166.775L246.66 138H199V130H248.53L262.551 138H262.66L294.5 156.383V155.23L294.75 155.373V138V130H305C311.627 130 317 124.627 317 118V56C317 49.3726 311.627 44 305 44Z" fill="currentColor"/>
    <path d="M162 69V77H170V69H162ZM154 69H146V77H154V69ZM302.5 138V130H294.5V138H302.5ZM296.5 166.775L292.5 173.703L292.5 173.703L296.5 166.775ZM246.66 138L250.66 131.072L248.804 130H246.66V138ZM199 138H191V146H199V138ZM199 130V122H191V130H199ZM248.53 130L252.495 123.051L250.652 122H248.53V130ZM262.551 138L258.587 144.949L260.43 146H262.551V138ZM262.66 138L266.66 131.072L264.804 130H262.66V138ZM294.5 156.383L290.5 163.311L302.5 170.239V156.383H294.5ZM294.5 155.23L298.465 148.282L286.5 141.455V155.23H294.5ZM294.75 155.373L290.785 162.322L302.75 169.148V155.373H294.75ZM294.75 130V122H286.75V130H294.75ZM174 52H305V36H174V52ZM170 56C170 53.7909 171.791 52 174 52V36C162.954 36 154 44.9543 154 56H170ZM170 69V56H154V69H170ZM154 77H162V61H154V77ZM162 69V56H146V69H162ZM162 56C162 49.3726 167.373 44 174 44V28C158.536 28 146 40.536 146 56H162ZM174 44H305V28H174V44ZM305 44C311.627 44 317 49.3726 317 56H333C333 40.536 320.464 28 305 28V44ZM317 56V118H333V56H317ZM317 118C317 124.627 311.627 130 305 130V146C320.464 146 333 133.464 333 118H317ZM305 130H302.5V146H305V130ZM294.5 138V163.311H310.5V138H294.5ZM294.5 163.311C294.5 160.232 297.833 158.307 300.5 159.847L292.5 173.703C300.5 178.322 310.5 172.548 310.5 163.311H294.5ZM300.5 159.847L250.66 131.072L242.66 144.928L292.5 173.703L300.5 159.847ZM246.66 130H199V146H246.66V130ZM191 130V138H207V130H191ZM248.53 122H199V138H248.53V122ZM266.516 131.051L252.495 123.051L244.566 136.949L258.587 144.949L266.516 131.051ZM262.66 130H262.551V146H262.66V130ZM298.5 149.454L266.66 131.072L258.66 144.928L290.5 163.311L298.5 149.454ZM286.5 155.23V156.383H302.5V155.23H286.5ZM298.715 148.425L298.465 148.282L290.535 162.179L290.785 162.322L298.715 148.425ZM286.75 138V155.373H302.75V138H286.75ZM286.75 130V138H302.75V130H286.75ZM305 122H294.75V138H305V122ZM309 118C309 120.209 307.209 122 305 122V138C316.046 138 325 129.046 325 118H309ZM309 56V118H325V56H309ZM305 52C307.209 52 309 53.7909 309 56H325C325 44.9543 316.046 36 305 36V52Z" fill="currentColor" mask="url(#path-3-inside-2_618_238)"/>
    <path d="M94.4 145L109.24 99.22H118.76L133.6 145H124.99L118.06 120.64C117.407 118.213 116.707 115.717 115.96 113.15C115.26 110.583 114.607 108.04 114 105.52H113.72C113.067 108.04 112.39 110.583 111.69 113.15C111.037 115.717 110.36 118.213 109.66 120.64L102.66 145H94.4ZM103.15 132.61V126.24H124.64V132.61H103.15Z" fill="currentColor"/>
    <path d="M256.46 72.44L264.14 74.66C256.58 96.26 242.6 108.86 221.12 115.58C220.28 113.78 218 110.3 216.56 108.56C237.32 103.1 250.22 92 256.46 72.44ZM233.3 72.92C239.36 90.68 252.32 103.46 273.68 108.26C271.94 109.94 269.6 113.36 268.46 115.46C245.96 109.58 233.6 95.84 226.1 75.08L233.3 72.92ZM217.64 68.54H272.6V75.62H217.64V68.54ZM241.22 59.06H248.66V72.86H241.22V59.06Z" fill="currentColor"/>
</svg>
